<svg width="24" height="25" viewBox="0 0 24 25" fill="none" xmlns="http://www.w3.org/2000/svg">
<path d="M22.3373 25C22.3497 24.9985 22.3613 24.9969 22.3737 24.9961C22.7531 24.9907 23.1503 24.9364 23.532 24.976C23.532 23.166 23.532 21.3553 23.5297 19.5454C23.5297 19.2754 23.5219 19 23.473 18.7362C23.127 16.8867 21.6251 15.6625 19.6988 15.661C14.4148 15.6579 9.13013 15.6587 3.84619 15.6633C3.55759 15.6633 3.26356 15.685 2.98195 15.744C1.2015 16.1156 0.00910393 17.5989 0.00367336 19.4515C-0.00175721 21.2746 -0.000205617 23.0978 0.000570179 24.9216C0.406311 24.9178 0.812052 24.8891 1.21547 24.9085V24.2785C1.21547 24.2785 1.1984 22.8821 1.19762 22.7983C1.19685 21.685 1.19374 20.5725 1.19762 19.4593C1.20305 17.9472 2.25503 16.865 3.76318 16.8619C9.1053 16.8534 14.4467 16.8526 19.7888 16.8619C21.276 16.8642 22.3357 17.9566 22.3411 19.4445C22.3442 20.1978 22.3396 23.1629 22.3357 24.9992L22.3373 25Z" fill="white"/>
<path d="M11.7663 15.1808C7.62198 15.1893 4.17978 11.7898 4.17822 7.68659C4.1759 3.38559 7.53276 0.00932541 11.8206 1.58726e-05C15.9238 -0.00851787 19.3543 3.42515 19.3629 7.55161C19.3722 11.7657 15.9796 15.1722 11.7663 15.1808ZM5.58009 7.5966C5.55604 10.9581 8.33726 13.7634 11.719 13.7898C15.1216 13.8162 17.9331 11.0504 17.9494 7.66022C17.9664 4.20793 15.2442 1.43369 11.8167 1.40964C8.3714 1.38559 5.60569 4.13035 5.58009 7.5966Z" fill="white"/>
</svg>