<svg width="162" height="27" viewBox="0 0 162 27" fill="none" xmlns="http://www.w3.org/2000/svg">
<path fill-rule="evenodd" clip-rule="evenodd" d="M25.6192 0.749817H29.7413V0.998977C28.3377 1.07226 27.6286 1.80509 27.6286 3.19747C27.6286 3.4906 27.6581 3.90098 27.732 4.42862L30.5096 24.3177C30.6721 25.3143 30.8642 25.9592 31.0711 26.2377C31.2779 26.5162 31.7212 26.6774 32.3712 26.736V26.9852H26.4022V26.736C27.1853 26.7653 27.5843 26.3842 27.5843 25.5928C27.5843 25.4169 27.5547 25.0652 27.4808 24.5375L24.7919 5.24939L15.3066 26.9852H15.1293L5.58485 5.29336L2.91065 24.6841C2.86632 24.9772 2.83679 25.3143 2.83679 25.6954C2.83679 26.3843 3.23572 26.736 4.04832 26.736V26.9852H0V26.736C0.620534 26.736 1.00475 26.6627 1.18204 26.5015C1.35934 26.3549 1.49225 26.1058 1.58089 25.7833C1.68432 25.4609 1.75823 25.0945 1.80255 24.6841L4.81654 3.47595C4.32898 2.28876 3.84142 1.58525 3.33908 1.35074C2.83674 1.11624 2.36401 0.998977 1.92077 0.998977V0.749817H6.91451L16.2374 22.2071L25.6192 0.749817ZM44.25 0.749817V0.998977C43.9102 0.955007 43.5261 1.01363 43.0976 1.1602C42.6692 1.30677 42.418 1.51197 42.3441 1.79045C42.2702 2.06892 42.2259 2.71383 42.2259 3.72513V23.8926C42.2259 24.9919 42.2702 25.6514 42.3589 25.9006C42.4475 26.1497 42.6248 26.3403 42.876 26.5015C43.1271 26.6627 43.5851 26.7507 44.25 26.7507V26.9998H37.1878V26.7507C38.0743 26.7507 38.6357 26.5748 38.8573 26.2524C39.0789 25.9153 39.1823 25.1384 39.1823 23.9366V3.9596C39.1823 2.71379 39.0641 1.89304 38.8277 1.51197C38.5913 1.1309 38.0446 0.955021 37.2025 1.01365V0.764465H44.25V0.749817Z" fill="white"/>
<path fill-rule="evenodd" clip-rule="evenodd" d="M69 1.13715V0.88931H85.7188V3.93631H85.4681V3.8051C85.4386 3.79052 85.4387 3.74677 85.4387 3.70304C85.2028 2.81373 84.8636 2.25973 84.4361 2.05562C84.0085 1.85152 83.3451 1.74946 82.4605 1.74946H73.9389V13.2668H81.8855C82.5785 13.2668 83.0355 13.2084 83.2861 13.1064C83.5368 13.0043 83.6842 12.7565 83.7137 12.392H83.9644V14.8558H83.7137C83.7137 14.2727 83.3156 13.9811 82.5342 13.9811H73.9389V24.405C73.9389 25.3818 74.0864 26.0232 74.396 26.3002C74.7056 26.5918 75.2216 26.723 75.9587 26.723V26.9709H69.0148V26.723C69.8256 26.723 70.3564 26.5772 70.5628 26.2565C70.7839 25.9504 70.8872 25.513 70.8872 24.959V3.46977C70.8872 2.59504 70.7545 1.98272 70.5038 1.63282C70.2385 1.31209 69.7519 1.13715 69 1.13715ZM102.895 0.88931V1.13715C102.555 1.09341 102.172 1.15173 101.745 1.29752C101.317 1.4433 101.066 1.64742 100.993 1.92442C100.919 2.20142 100.875 2.8429 100.875 3.84884V23.9093C100.875 25.0027 100.919 25.6587 101.007 25.9066C101.096 26.1544 101.273 26.344 101.523 26.5043C101.774 26.6647 102.231 26.7522 102.895 26.7522V27H95.8474V26.7522C96.732 26.7522 97.2922 26.5772 97.5133 26.2565C97.7345 25.9212 97.8377 25.1485 97.8377 23.953V4.08206C97.8377 2.84286 97.7197 2.02647 97.4838 1.64742C97.2479 1.26837 96.7024 1.09343 95.862 1.15174V0.903881H102.895V0.88931ZM145.178 0.0145931L143.925 3.13444H143.674C143.718 2.94492 143.748 2.6825 143.748 2.36177C143.748 2.08477 143.645 1.90983 143.453 1.82236C143.261 1.74946 142.952 1.70572 142.509 1.70572H135.595V24.0697C135.595 25.0027 135.669 25.6296 135.816 25.9649C135.964 26.3002 136.17 26.5043 136.435 26.6064C136.686 26.6939 137.114 26.7376 137.689 26.7376V26.9855H130.523V26.7376C131.423 26.6793 131.983 26.5043 132.204 26.2273C132.425 25.9357 132.543 25.3526 132.543 24.4487V1.70572H125.923C125.26 1.70572 124.818 1.74946 124.611 1.82236C124.405 1.89525 124.316 2.09937 124.316 2.40552C124.316 2.56589 124.361 2.79916 124.464 3.11989H124.213L122.96 0H123.211C123.432 0.408208 123.638 0.656062 123.845 0.743535C124.051 0.831008 124.508 0.874739 125.201 0.874739H142.76C143.453 0.874739 143.954 0.831008 144.249 0.743535C144.559 0.656062 144.78 0.408208 144.927 0H145.178V0.0145931ZM162 0.88931V1.13715C161.661 1.09341 161.278 1.15173 160.85 1.29752C160.422 1.4433 160.172 1.64742 160.098 1.92442C160.024 2.20142 159.98 2.8429 159.98 3.84884V23.9093C159.98 25.0027 160.024 25.6587 160.113 25.9066C160.201 26.1544 160.378 26.344 160.629 26.5043C160.88 26.6647 161.337 26.7522 162 26.7522V27H154.953V26.7522C155.837 26.7522 156.398 26.5772 156.619 26.2565C156.84 25.9212 156.943 25.1485 156.943 23.953V4.08206C156.943 2.84286 156.825 2.02647 156.575 1.64742C156.339 1.26837 155.793 1.09343 154.953 1.15174V0.903881H162V0.88931Z" fill="white"/>
</svg>
